<?xml version="1.0" encoding="UTF-8"?>
<!DOCTYPE svg PUBLIC "-//W3C//DTD SVG 1.1//EN" "http://www.w3.org/Graphics/SVG/1.1/DTD/svg11.dtd">
<svg xmlns="http://www.w3.org/2000/svg" version="1.1" width="100px" height="100px" style="shape-rendering:geometricPrecision; text-rendering:geometricPrecision; image-rendering:optimizeQuality; fill-rule:evenodd; clip-rule:evenodd" xmlns:xlink="http://www.w3.org/1999/xlink">
<g><path style="opacity:0.94" fill="#0093cd" d="M 41.5,5.5 C 53.9901,3.82266 59.1568,9.15599 57,21.5C 46,44.8333 35,68.1667 24,91.5C 19.9089,95.3049 15.0755,96.4716 9.5,95C 7,93.8333 5.16667,92 4,89.5C 3.33333,86.1667 3.33333,82.8333 4,79.5C 15,56.1667 26,32.8333 37,9.5C 38.3968,7.92975 39.8968,6.59641 41.5,5.5 Z"/></g>
<g><path style="opacity:0.94" fill="#e4f4f9" d="M 99.5,12.5 C 99.5,15.8333 99.5,19.1667 99.5,22.5C 88.1082,45.6206 76.9415,68.9539 66,92.5C 61.9089,96.3049 57.0755,97.4716 51.5,96C 47.0466,93.9289 45.0466,90.4289 45.5,85.5C 46.1204,80.5824 47.6204,75.9157 50,71.5C 59.6667,51.1667 69.3333,30.8333 79,10.5C 83.8919,6.2237 89.3919,5.39036 95.5,8C 97.0703,9.39683 98.4036,10.8968 99.5,12.5 Z"/></g>
</svg>
